HIERARCHY
ROOT Spine
{
    OFFSET 0.0 0.0 -0.0
    CHANNELS 6 Xposition Yposition Zposition Zrotation Xrotation Yrotation
    JOINT ShoulderCenter
    {
        OFFSET 0.0 31.778181076049805 0.0
        CHANNELS 3 Zrotation Xrotation Yrotation
        JOINT LeftShoulder
        {
            OFFSET 19.56266212463379 0.0 0.0
            CHANNELS 3 Zrotation Xrotation Yrotation
            JOINT LeftElbow
            {
                OFFSET 30.056922912597656 0.0 0.0
                CHANNELS 3 Zrotation Xrotation Yrotation
                JOINT LeftHand
                {
                    OFFSET 29.24838638305664 0.0 0.0
                    CHANNELS 3 Zrotation Xrotation Yrotation
                    End Site
                    {
                        OFFSET 11.69935417175293 0.0 0.0
                    }
                }
            }
        }
        JOINT RightShoulder
        {
            OFFSET -19.56266212463379 0.0 0.0
            CHANNELS 3 Zrotation Xrotation Yrotation
            JOINT RightElbow
            {
                OFFSET -30.056922912597656 0.0 0.0
                CHANNELS 3 Zrotation Xrotation Yrotation
                JOINT RightHand
                {
                    OFFSET -29.24838638305664 0.0 0.0
                    CHANNELS 3 Zrotation Xrotation Yrotation
                    End Site
                    {
                        OFFSET -11.69935417175293 0.0 0.0
                    }
                }
            }
        }
        End Site
        {
            OFFSET 0.0 12.711274147033691 0.0
        }
    }
    JOINT LeftHip
    {
        OFFSET 16.176682012527635 -16.176682012527635 0.0
        CHANNELS 3 Zrotation Xrotation Yrotation
        JOINT LeftKnee
        {
            OFFSET 0.0 -37.65435028076172 0.0
            CHANNELS 3 Zrotation Xrotation Yrotation
            JOINT LeftFoot
            {
                OFFSET 0.0 -45.33030700683594 0.0
                CHANNELS 3 Zrotation Xrotation Yrotation
                End Site
                {
                    OFFSET 0.0 0.0 18.132122039794922
                }
            }
        }
    }
    JOINT RightHip
    {
        OFFSET -16.176682012527635 -16.176682012527635 0.0
        CHANNELS 3 Zrotation Xrotation Yrotation
        JOINT RightKnee
        {
            OFFSET 0.0 -37.65435028076172 0.0
            CHANNELS 3 Zrotation Xrotation Yrotation
            JOINT RightFoot
            {
                OFFSET 0.0 -45.33030700683594 0.0
                CHANNELS 3 Zrotation Xrotation Yrotation
                End Site
                {
                    OFFSET 0.0 0.0 18.132122039794922
                }
            }
        }
    }
}
MOTION
Frames: 11
Frame Time: 0.03333333333333333
53.89999771118164 -3.700000047683716 196.89999389648438 10.418652285077865 7.053475083934693 -96.34788717821415 -9.595255683486207e-08 1.0507371014502365e-06 3.98982114511004 100.03287201091624 12.683142583820853 163.8721830207668 1.8257748612974355e-07 4.724456167450572e-06 32.730723760857735 -6.3611093629270335e-15 -6.3611093629270335e-15 -3.531125038440127e-31 -92.18076632002416 5.1796571678590535 -176.80364780742238 1.1742297592692283e-06 -2.3531392427420566e-06 -32.190829340620546 0.0 0.0 -6.361109362927032e-15 4.375171355984933 -41.89995511377262 55.948367287976126 31.22386938903802 19.22021834779583 -79.87134463079245 -6.460501696722769e-16 4.969616689786746e-17 -1.6337614867673924e-15 6.1555635716541355 -15.636766878458891 -4.394335574016039 -0.17913182589934482 22.806051839785166 37.71243785963677 -1.5902773407317584e-15 -1.9310840053969444e-32 1.3914926731402886e-15
53.20000076293945 -3.5 197.6999969482422 10.239772032957541 7.415433441956469 -97.24479803799149 2.443033476930763e-07 3.6310642155645466e-07 3.753668424693618 99.90086422527116 11.282432151222421 163.79432092676407 -3.0554443379468056e-06 8.86097167604053e-06 33.12335139236652 -3.1805546814635168e-15 0.0 0.0 -93.00372630692424 6.339735087433066 -176.11303280231337 -4.247211675267223e-06 5.542264748866758e-06 -34.609757614412295 -6.361109362927035e-15 -6.361109362927035e-15 -6.361109362927035e-15 4.581539704617579 -40.29601089085013 55.35494061226663 29.97978355624449 18.881896677351584 -80.8550978960403 -3.4787316828507215e-16 2.511917866395244e-32 -8.27441178849493e-15 6.84928386016079 -18.893574987055864 -10.252103599630564 -4.849287150171085 29.506973334941065 48.69891505780658 3.1805546814635168e-15 6.620859447075238e-32 2.3854160110976376e-15
52.70000076293945 -3.0999999046325684 198.39999389648438 10.597332884869319 7.942375120934222 -98.86206637451988 -1.6263979959891418e-06 -2.3584242539754267e-07 3.787485837836884 100.31074428370418 8.92473358561477 164.04918551047012 4.7350702422962165e-07 -3.219145744870884e-06 34.953378931645695 -3.1805546814635168e-15 1.7655625192200634e-31 -6.3611093629270335e-15 -93.9269678123884 5.721163321020126 -176.78187538186648 2.2785914321651184e-06 4.876830149072365e-07 -36.18833256824026 6.361109362927035e-15 6.361109362927035e-15 -3.531125038440127e-31 5.676815848337186 -38.57441109954965 53.99686434190229 27.38456490969982 19.02387605302023 -80.15794391734012 6.957463365701443e-16 8.297626585689995e-33 1.3666445896913548e-15 7.367226266826518 -26.012677197536792 -21.222514345699686 -16.542264934874368 39.03172772407183 68.97694486092767 4.965644585306429e-32 -1.5902773407317584e-15 3.578124016646457e-15
52.29999923706055 -2.8000001907348633 199.0 10.988651017365667 8.670366481878647 -100.64610510376028 9.448530589532472e-07 -1.923781535918967e-07 3.7888964225259008 101.23910960167292 6.261502577910523 164.85246002644791 4.08786152464343e-07 -4.100463665689285e-06 37.002508211911135 0.0 0.0 -6.3611093629270335e-15 -94.24480148096491 6.094263523608341 -177.83615061895983 1.0343898504163193e-06 7.321637880393348e-06 -37.921662552586156 0.0 -6.3611093629270335e-15 0.0 7.351734124392266 -36.76578278229483 51.758677849088734 23.976399079394096 19.76994885333768 -77.39648503179694 -3.975693351829396e-16 1.987846675914698e-16 -8.696829207126804e-17 8.634721349930848 -35.79364872678027 -33.80891613128488 -39.16304732749246 45.10784718065443 96.55794992979403 -3.1805546814635164e-15 -5.517382872562698e-32 1.9878466759146976e-15
52.10000228881836 -2.5 199.60000610351562 11.38146930954673 9.042521681814566 -100.90219350934942 6.420774114806142e-07 3.083583254533586e-07 2.7707267325211196 102.33303153469281 3.541580366270615 166.9304073008083 -2.3092672513229897e-06 1.6880949149887502e-06 38.186319077710124 0.0 0.0 -3.1805546814635168e-15 -93.96005927586515 7.607748197713659 -178.64113990434103 -3.5790149230817852e-06 -8.61499355233904e-07 -39.7505954191278 0.0 -1.5902773407317584e-15 0.0 8.102987013287798 -35.66516032344013 49.94125597903978 20.97577384418849 20.040401709841362 -74.78131095803805 1.987846675914698e-16 -3.975693351829396e-16 -2.9320738469741797e-15 8.781968169297487 -46.96928582065414 -44.107756694253375 -62.852238830577505 45.4460045743551 119.4754911428845 6.3611093629270335e-15 1.5902773407317588e-15 5.565970692561154e-15
51.89999771118164 -2.200000047683716 200.20001220703125 11.77573782193617 9.236988733593291 -100.93285336269177 7.972847272882098e-07 4.974124203657895e-08 1.8217251149792495 103.77883817544392 0.8751359745080635 170.3782945995049 -2.5705332032637513e-06 -1.2625357168906367e-06 37.97598944792567 -1.7655625192200634e-31 6.3611093629270335e-15 3.1805546814635168e-15 -94.24206350954952 8.136013199878617 -179.724028231027 8.661021535914397e-07 -3.1142406839899143e-06 -41.26148907780754 0.0 -6.361109362927032e-15 0.0 8.15061010846707 -34.67083391749836 46.83880073169239 18.122584513711242 20.18786415542807 -71.87118078028935 -5.963540027744094e-16 -4.5259781376490885e-32 8.696829207126804e-15 8.518008627147566 -58.78653567231751 -50.84837376252855 -82.04366730446692 42.65719058446751 134.01380935198202 0.0 3.1805546814635168e-15 0.0
51.89999771118164 -1.7000000476837158 200.60000610351562 12.132986629561906 9.402706126326864 -99.91318403403729 5.537739200519536e-08 -6.259207376160027e-07 0.4874057628019691 105.39071400926187 -0.42848106054683677 174.64306634673267 -4.246329569003362e-06 2.167179351230612e-06 37.15877912043318 0.0 6.3611093629270335e-15 0.0 -94.34731821109399 8.917370950556792 179.29383356961694 1.2985903739088239e-06 1.035864727747169e-06 -42.264908937675884 6.3611093629270335e-15 6.3611093629270335e-15 -6.3611093629270335e-15 7.462812498134034 -33.85088276170859 42.2911427625744 15.691189859114276 19.750133898294642 -70.37278658373397 -7.951386703658792e-16 2.758691436281349e-33 -3.975693351829396e-16 4.879613124818215 -70.81118274842453 -58.86412583713439 -95.78893530014908 39.25620820494591 142.66866037883253 -5.517382872562698e-33 1.5902773407317584e-15 3.975693351829396e-16
51.89999771118164 -1.4000000953674316 201.09999084472656 12.707108602058968 9.412488176705256 -99.40163188100999 -4.846280407861089e-07 1.141765041853151e-06 0.5829521732972968 106.26087740566271 0.1675137818560937 179.92484968384508 -1.0072029299015067e-06 -1.3423366217276166e-06 36.042298770868456 6.3611093629270335e-15 -6.3611093629270335e-15 -3.1805546814635164e-15 -94.8558851027766 10.113050062492546 178.5192073155033 5.625102428542729e-07 -1.3128569649616194e-08 -42.859865997568846 4.413906298050159e-31 -7.951386703658793e-15 6.361109362927035e-15 6.810799682842255 -32.87515812429182 34.694293486848636 11.950385977161464 19.61882250139232 -65.66682525550122 0.0 0.0 -5.814451527050491e-15 -7.742064682709529 -83.2793526460029 -73.88073367445493 -105.91738410499491 36.612392344630244 146.28200100378328 -3.1805546814635168e-15 -1.5902773407317584e-15 -2.5842006786891076e-15
51.79999923706055 -1.4000000953674316 201.50001525878906 13.062969106793458 9.399308853002335 -98.40336508850388 6.237815401056788e-08 -1.0676016859303855e-07 0.06597809531335888 106.82961385709321 0.7682674481738749 -175.6729543972382 -1.6722842198324783e-06 -2.861436522924561e-06 36.67181689925723 0.0 0.0 0.0 -96.0464233091541 9.372489667606347 177.73595960863176 7.071642101837682e-07 -9.754437197782243e-07 -42.87356738726063 0.0 0.0 0.0 6.430906735084494 -32.16565113388735 28.011819941312655 8.9603994865704 19.676752229874566 -64.69629241671254 3.975693351829396e-16 7.758819664541295e-34 2.2363275104040355e-16 -151.9141543746869 -83.52878306970375 141.46546714914575 -113.44968855982496 35.195987534494286 146.80661488918344 -3.1805546814635168e-15 -1.4345195468663017e-31 5.168401357378215e-15
51.70000076293945 -1.5 201.6999969482422 13.24052029421339 9.747126602794708 -97.84428798783132 1.5581566812142257e-06 -3.167555318969343e-07 0.12967260460108332 107.19731635181117 1.6006320023099996 -172.59787729951825 3.585275647199404e-06 -5.845283432239479e-07 39.55672220863341 -3.1805546814635168e-15 0.0 0.0 -97.00927413981755 8.472383678832252 177.56023101222357 -2.502413838305246e-06 1.8647672419177593e-06 -43.25416863616394 0.0 0.0 6.3611093629270335e-15 7.24334983122213 -31.47665959482825 20.071682700586514 4.831641051402035 20.45744124877561 -62.002694353660814 4.4828735839571924e-32 -7.951386703658792e-16 6.4605016967227685e-15 -166.14358495537488 -71.75241107046084 127.16441276577571 -119.31130546817916 34.22452865424652 145.88603254115353 0.0 0.0 3.1805546814635168e-15
51.5 -1.600000023841858 201.90000915527344 13.282395276813464 10.308573930385878 -96.58264497979941 -1.1631260752709748e-07 2.028242216606677e-06 -0.2455065470304281 107.73971557724411 1.306508165376515 -170.20296792361182 2.011947104022165e-06 -6.794494230850105e-07 43.59971727201473 3.1805546814635168e-15 8.827812596100317e-32 3.1805546814635168e-15 -98.39178096035518 6.823727780805682 177.66256218208997 6.376539943493348e-07 2.007394719891335e-06 -43.02346700306783 0.0 6.3611093629270335e-15 0.0 7.30511517057207 -30.627530351519802 7.884206163078559 -0.06363733187882843 20.32612402800735 -53.48222893999026 -7.951386703658792e-16 -2.793175079234866e-32 4.0253895187272635e-15 -166.7611204292167 -59.82238899537654 126.24057427820311 -124.22477237741258 32.97325798461991 144.45593494862032 0.0 0.0 2.0126947593636317e-15
